<svg xmlns:xlink="http://www.w3.org/1999/xlink" xmlns="http://www.w3.org/2000/svg" viewBox="0 0 395.52 84.77951771360524" height="84.77951771360524" width="395.52"><g><svg viewBox="0 0 395.52 84.77951771360524" height="84.77951771360524" width="395.52"><g transform="matrix(1,0,0,1,0,0)"><svg width="395.52" viewBox="0.45000001788139343 -35.5 167.94000244140625 36" height="84.77951771360524" data-palette-color="#3d3839"><path d="M7.65 0L1.5 0Q1.1 0 0.78-0.33 0.45-0.65 0.45-1.05L0.45-1.05Q0.45-1.3 0.5-1.5L0.5-1.5 12.25-33.6Q12.4-34.15 12.88-34.58 13.35-35 14.2-35L14.2-35 21.6-35Q22.45-35 22.93-34.58 23.4-34.15 23.55-33.6L23.55-33.6 35.25-1.5Q35.35-1.3 35.35-1.05L35.35-1.05Q35.35-0.65 35.02-0.33 34.7 0 34.25 0L34.25 0 28.1 0Q27.35 0 26.98-0.38 26.6-0.75 26.5-1.05L26.5-1.05 24.55-6.15 11.2-6.15 9.3-1.05Q9.2-0.75 8.85-0.38 8.5 0 7.65 0L7.65 0ZM17.9-26.55L13.25-13.35 22.55-13.35 17.9-26.55ZM48.3 0.5L48.3 0.5Q45.45 0.5 43.22-0.8 41-2.1 39.75-4.63 38.5-7.15 38.5-10.8L38.5-10.8 38.5-24.75Q38.5-25.3 38.85-25.65 39.2-26 39.75-26L39.75-26 46-26Q46.55-26 46.92-25.65 47.3-25.3 47.3-24.75L47.3-24.75 47.3-11.1Q47.3-6.2 51.65-6.2L51.65-6.2Q53.7-6.2 54.92-7.48 56.15-8.75 56.15-11.1L56.15-11.1 56.15-24.75Q56.15-25.3 56.5-25.65 56.85-26 57.4-26L57.4-26 63.65-26Q64.2-26 64.55-25.65 64.9-25.3 64.9-24.75L64.9-24.75 64.9-1.25Q64.9-0.75 64.55-0.38 64.2 0 63.65 0L63.65 0 57.85 0Q57.35 0 56.97-0.38 56.6-0.75 56.6-1.25L56.6-1.25 56.6-3.15Q55.3-1.35 53.22-0.43 51.15 0.5 48.3 0.5ZM88.75 0L84.1 0Q80.9 0 78.57-1.03 76.25-2.05 75-4.23 73.75-6.4 73.75-9.85L73.75-9.85 73.75-19.45 69.85-19.45Q69.3-19.45 68.92-19.8 68.55-20.15 68.55-20.7L68.55-20.7 68.55-24.75Q68.55-25.3 68.92-25.65 69.3-26 69.85-26L69.85-26 73.75-26 73.75-34.25Q73.75-34.8 74.12-35.15 74.5-35.5 75-35.5L75-35.5 80.8-35.5Q81.35-35.5 81.7-35.15 82.05-34.8 82.05-34.25L82.05-34.25 82.05-26 88.3-26Q88.85-26 89.22-25.65 89.6-25.3 89.6-24.75L89.6-24.75 89.6-20.7Q89.6-20.15 89.22-19.8 88.85-19.45 88.3-19.45L88.3-19.45 82.05-19.45 82.05-10.55Q82.05-8.85 82.7-7.85 83.35-6.85 84.9-6.85L84.9-6.85 88.75-6.85Q89.3-6.85 89.65-6.5 90-6.15 90-5.6L90-5.6 90-1.25Q90-0.75 89.65-0.38 89.3 0 88.75 0L88.75 0ZM106.44 0.5L106.44 0.5Q102.24 0.5 99.37-0.85 96.49-2.2 94.97-4.73 93.44-7.25 93.24-10.75L93.24-10.75Q93.19-11.75 93.19-13.03 93.19-14.3 93.24-15.25L93.24-15.25Q93.44-18.8 95.04-21.3 96.64-23.8 99.52-25.15 102.39-26.5 106.44-26.5L106.44-26.5Q110.54-26.5 113.42-25.15 116.29-23.8 117.89-21.3 119.49-18.8 119.69-15.25L119.69-15.25Q119.74-14.3 119.74-13.03 119.74-11.75 119.69-10.75L119.69-10.75Q119.49-7.25 117.97-4.73 116.44-2.2 113.57-0.85 110.69 0.5 106.44 0.5ZM106.44-5.6L106.44-5.6Q108.69-5.6 109.72-6.95 110.74-8.3 110.89-11L110.89-11Q110.94-11.75 110.94-13 110.94-14.25 110.89-15L110.89-15Q110.74-17.65 109.72-19.03 108.69-20.4 106.44-20.4L106.44-20.4Q104.29-20.4 103.22-19.03 102.14-17.65 102.04-15L102.04-15Q101.99-14.25 101.99-13 101.99-11.75 102.04-11L102.04-11Q102.14-8.3 103.22-6.95 104.29-5.6 106.44-5.6ZM133.19 0L126.49 0Q125.94 0 125.59-0.38 125.24-0.75 125.24-1.25L125.24-1.25 125.24-33.75Q125.24-34.3 125.59-34.65 125.94-35 126.49-35L126.49-35 133.19-35Q133.74-35 134.12-34.65 134.49-34.3 134.49-33.75L134.49-33.75 134.49-1.25Q134.49-0.75 134.12-0.38 133.74 0 133.19 0L133.19 0ZM156.99 0L150.39 0Q149.84 0 149.49-0.38 149.14-0.75 149.14-1.25L149.14-1.25 149.14-27.15 140.24-27.15Q139.69-27.15 139.34-27.53 138.99-27.9 138.99-28.4L138.99-28.4 138.99-33.75Q138.99-34.3 139.34-34.65 139.69-35 140.24-35L140.24-35 167.14-35Q167.69-35 168.04-34.65 168.39-34.3 168.39-33.75L168.39-33.75 168.39-28.4Q168.39-27.9 168.04-27.53 167.69-27.15 167.14-27.15L167.14-27.15 158.24-27.15 158.24-1.25Q158.24-0.75 157.89-0.38 157.54 0 156.99 0L156.99 0Z" opacity="1" transform="matrix(1,0,0,1,0,0)" fill="#3D3839" class="undefined-text-0" data-fill-palette-color="primary" id="text-0"></path></svg></g></svg></g></svg>