<svg xmlns:xlink="http://www.w3.org/1999/xlink" xmlns="http://www.w3.org/2000/svg" viewBox="0 0 395.52 247.2" height="247.2" width="395.52"><g><svg viewBox="0 0 395.52 247.2" height="247.2" width="395.52"><g transform="matrix(1,0,0,1,0,51.46793437105596)"><svg viewBox="0 0 395.52 144.26413125788807" height="144.26413125788807" width="395.52"><g><svg viewBox="0 0 395.52 144.26413125788807" height="144.26413125788807" width="395.52"><g><svg viewBox="0 0 395.52 144.26413125788807" height="144.26413125788807" width="395.52"><g><svg viewBox="0 0 395.52 144.26413125788807" height="144.26413125788807" width="395.52"><g><svg viewBox="0 0 395.52 144.26413125788807" height="144.26413125788807" width="395.52"><g><svg viewBox="0 0 395.52 144.26413125788807" height="144.26413125788807" width="395.52"><g transform="matrix(1,0,0,1,0,0)"><svg width="395.52" viewBox="1 -42.95000076293945 118.83999633789062 43.35000228881836" height="144.26413125788807" data-palette-color="#ececec"><path d="M8.4 0.4Q4.15 0.4 2.58-2.43 1-5.25 1-10.5L1-10.5Q1-14.8 2.13-17.1 3.25-19.4 5.25-20.48 7.25-21.55 11.35-22.85L11.35-22.85 13.75-23.65 13.75-23.75 13.75-27.4Q13.75-28.85 13.18-29.63 12.6-30.4 11.8-30.4L11.8-30.4Q11.1-30.4 10.58-29.75 10.05-29.1 10.05-28L10.05-28 10.05-25.8 1.55-25.8 1.55-27Q1.55-32.4 4.08-34.7 6.6-37 12.3-37L12.3-37Q16.85-37 19.7-34.63 22.55-32.25 22.55-27.9L22.55-27.9 22.55 0 13.85 0 13.85-4.35Q13.2-2.1 11.78-0.85 10.35 0.4 8.4 0.4L8.4 0.4ZM11.85-6.4Q12.85-6.4 13.28-7.23 13.7-8.05 13.7-9.25L13.7-9.25 13.7-19.45Q11.75-18.7 10.83-17.55 9.9-16.4 9.9-14.35L9.9-14.35 9.9-9.65Q9.9-6.4 11.85-6.4L11.85-6.4ZM32.95 0.4Q28.85 0.4 27.32-2.05 25.8-4.5 25.8-9.35L25.8-9.35 25.8-36.6 34.6-36.6 34.6-11.1Q34.6-10.75 34.6-9.22 34.6-7.7 35.07-7.08 35.55-6.45 36.55-6.45L36.55-6.45Q37.9-6.45 38.25-7.58 38.6-8.7 38.6-10.8L38.6-10.8 38.6-11.1 38.65-36.6 47.35-36.6 47.35 0 38.6 0 38.6-3.9Q37.7-1.6 36.5-0.6 35.3 0.4 32.95 0.4L32.95 0.4ZM58.4 0.4Q54.95 0.4 53.65-1.05 52.35-2.5 52.35-5.7L52.35-5.7 52.35-28.55 49.9-28.55 49.9-35.2 52.35-35.2 52.35-42.95 60.85-42.95 60.85-35.2 63.35-35.2 63.35-28.55 60.85-28.55 60.85-8Q60.85-7.05 61-6.6 61.15-6.15 61.8-6.15L61.8-6.15Q62.3-6.15 62.75-6.2 63.2-6.25 63.35-6.25L63.35-6.25 63.35-0.25Q62.6-0.05 61.17 0.18 59.75 0.4 58.4 0.4L58.4 0.4ZM76.74 0.4Q65.79 0.4 65.79-10.95L65.79-10.95 65.79-25.65Q65.79-30.85 68.72-33.93 71.64-37 76.74-37L76.74-37Q81.84-37 84.77-33.93 87.69-30.85 87.69-25.65L87.69-25.65 87.69-10.95Q87.69 0.4 76.74 0.4L76.74 0.4ZM76.74-6.35Q77.79-6.35 78.29-7.1 78.79-7.85 78.79-9.15L78.79-9.15 78.79-27.05Q78.79-30.25 76.74-30.25L76.74-30.25Q74.69-30.25 74.69-27.05L74.69-27.05 74.69-9.15Q74.69-7.85 75.19-7.1 75.69-6.35 76.74-6.35L76.74-6.35ZM98.99 0L90.69 0 90.69-42.95 98.99-42.95 98.99 0ZM114.74 0L106.14 0 106.14-34.7 101.04-34.7 101.04-42.95 119.84-42.95 119.84-34.7 114.74-34.7 114.74 0Z" opacity="1" transform="matrix(1,0,0,1,0,0)" fill="#ECECEC" class="undefined-text-0" data-fill-palette-color="primary" id="text-0"></path></svg></g></svg></g></svg></g></svg></g></svg></g></svg></g></svg></g></svg></g></svg>