<svg xmlns:xlink="http://www.w3.org/1999/xlink" xmlns="http://www.w3.org/2000/svg" viewBox="0 0 375.07952880859375 238.15408325195312" height="238.15408325195312" width="375.07952880859375"><g><svg></svg></g><g><svg viewBox="0 0 375.07952880859375 238.15408325195312" height="238.15408325195312" width="375.07952880859375"><g transform="matrix(1,0,0,1,-10.220239639282227,-9.045913696289062)"><path xmlns="http://www.w3.org/2000/svg" d="M10.22 238.154v-229.108h375.08v229.108l-158.855 0 0-7.941h150.913v-213.226h-359.196v213.226h0.657l0 7.941z" fill="#D2D6DC" fill-rule="nonzero" stroke="none" stroke-width="1" stroke-linecap="butt" stroke-linejoin="miter" stroke-miterlimit="10" stroke-dasharray="" stroke-dashoffset="0" font-family="none" font-weight="none" font-size="none" text-anchor="none" style="mix-blend-mode: normal" data-fill-palette-color="tertiary"></path><g><path xmlns="http://www.w3.org/2000/svg" d="M46.68 246.579h-4.037v-35.298h4.037zM59.412 215.991v0c-0.828 0-1.484-0.238-1.967-0.714-0.483-0.476-0.725-1.101-0.724-1.874v0c0-0.759 0.242-1.363 0.724-1.811 0.483-0.449 1.139-0.673 1.967-0.673v0c0.828 0 1.484 0.224 1.967 0.673 0.483 0.449 0.725 1.052 0.724 1.811v0c0 0.773-0.242 1.397-0.724 1.874-0.483 0.476-1.139 0.714-1.967 0.714zM61.43 246.579h-4.037v-24.791h4.037zM111.375 246.579h-4.037v-14.543c0-2.367-0.566-4.165-1.698-5.393-1.125-1.235-2.646-1.853-4.565-1.853v0c-2.243 0-3.961 0.866-5.154 2.598-1.187 1.732-1.78 4.127-1.781 7.184v0h-1.863c0-2.229 0.221-4.178 0.662-5.849 0.435-1.677 1.077-3.071 1.926-4.182 0.849-1.111 1.877-1.943 3.084-2.494 1.208-0.552 2.577-0.828 4.11-0.828v0c1.953 0 3.623 0.435 5.01 1.304 1.387 0.87 2.453 2.115 3.198 3.737 0.738 1.622 1.108 3.547 1.108 5.776v0zM76.595 246.579h-4.037v-24.739h3.468l0.465 4.968c0.78-1.794 1.87-3.174 3.271-4.14 1.408-0.966 3.095-1.449 5.062-1.449v0c1.953 0 3.623 0.435 5.01 1.304 1.387 0.87 2.453 2.115 3.199 3.737 0.738 1.622 1.108 3.547 1.107 5.776v0 14.543h-3.985v-14.543c0-2.367-0.566-4.165-1.698-5.393-1.132-1.235-2.671-1.853-4.616-1.853v0c-1.484 0-2.767 0.404-3.851 1.211-1.09 0.814-1.929 1.977-2.515 3.488-0.587 1.504-0.88 3.302-0.88 5.393v0zM123.258 215.991v0c-0.828 0-1.484-0.238-1.967-0.714-0.483-0.476-0.725-1.101-0.724-1.874v0c0-0.759 0.242-1.363 0.724-1.811 0.483-0.449 1.139-0.673 1.967-0.673v0c0.828 0 1.484 0.224 1.967 0.673 0.483 0.449 0.725 1.052 0.724 1.811v0c0 0.773-0.242 1.397-0.724 1.874-0.483 0.476-1.139 0.714-1.967 0.714zM125.277 246.579h-4.037v-24.791h4.037zM144.012 247.2v0c-1.346 0-2.553-0.259-3.623-0.776-1.07-0.518-1.915-1.294-2.536-2.329-0.621-1.035-0.932-2.329-0.931-3.882v0-25.257h3.985v25.153c0 2.553 1.19 3.83 3.571 3.83v0c0.704 0 1.387-0.079 2.049-0.238 0.669-0.152 1.418-0.383 2.247-0.693v0l0.569 2.898c-0.883 0.38-1.76 0.69-2.629 0.932-0.87 0.242-1.77 0.362-2.702 0.362zM148.722 224.634h-15.786v-2.794h15.786zM164.456 247.2v0c-2.139 0-4.051-0.549-5.735-1.646-1.684-1.097-3.012-2.619-3.985-4.565-0.973-1.946-1.46-4.189-1.46-6.728v0c0-2.712 0.483-5.041 1.45-6.987 0.966-1.953 2.288-3.45 3.964-4.492 1.684-1.042 3.606-1.563 5.766-1.563v0c1.877 0 3.481 0.38 4.813 1.138 1.325 0.759 2.395 1.784 3.209 3.074 0.807 1.297 1.37 2.76 1.687 4.389 0.324 1.629 0.417 3.316 0.28 5.062v0h-17.908v-2.484h15.237l-1.19 0.776c0.055-1.021 0-2.039-0.166-3.053-0.166-1.021-0.473-1.956-0.921-2.806-0.449-0.856-1.077-1.542-1.884-2.06-0.814-0.518-1.849-0.776-3.105-0.776v0c-1.587 0-2.916 0.404-3.986 1.211-1.07 0.814-1.874 1.88-2.412 3.199-0.531 1.318-0.797 2.747-0.797 4.285v0 1.656c0 1.725 0.262 3.268 0.787 4.627 0.524 1.366 1.315 2.446 2.371 3.24 1.049 0.794 2.377 1.19 3.985 1.191v0c1.601 0 2.919-0.39 3.954-1.17 1.035-0.773 1.667-1.918 1.894-3.437v0h4.192c-0.262 1.642-0.849 3.054-1.759 4.234-0.918 1.18-2.084 2.087-3.499 2.722-1.415 0.642-3.009 0.963-4.782 0.963zM191.286 247.2v0c-2.001 0-3.837-0.538-5.507-1.615-1.677-1.083-3.016-2.602-4.016-4.554-1.001-1.96-1.501-4.268-1.501-6.925v0c0-2.643 0.493-4.931 1.48-6.863 0.98-1.932 2.284-3.419 3.913-4.461 1.635-1.042 3.426-1.563 5.372-1.563v0c1.815 0 3.406 0.438 4.772 1.314 1.373 0.883 2.439 2.153 3.199 3.809 0.759 1.656 1.139 3.657 1.138 6.004v0h-1.552c0-1.642-0.324-3.023-0.973-4.14-0.642-1.125-1.48-1.974-2.516-2.547-1.035-0.58-2.15-0.87-3.343-0.869v0c-1.346 0-2.574 0.376-3.685 1.128-1.111 0.745-2.001 1.815-2.671 3.209-0.662 1.387-0.994 3.047-0.993 4.979v0c0 1.967 0.331 3.657 0.993 5.072 0.669 1.415 1.56 2.502 2.671 3.26 1.111 0.759 2.339 1.139 3.685 1.139v0c1.125 0 2.208-0.293 3.25-0.88 1.042-0.587 1.901-1.446 2.578-2.577 0.669-1.132 1.004-2.498 1.004-4.099v0h1.552c0 2.395-0.393 4.427-1.18 6.097-0.78 1.663-1.839 2.926-3.178 3.788-1.339 0.863-2.836 1.294-4.492 1.294zM202.621 246.579h-3.365l-0.672-5.797v-29.501h4.037z" fill="#D2D6DC" fill-rule="nonzero" stroke="none" stroke-width="1" stroke-linecap="butt" stroke-linejoin="miter" stroke-miterlimit="10" stroke-dasharray="" stroke-dashoffset="0" font-family="none" font-weight="none" font-size="none" text-anchor="none" style="mix-blend-mode: normal" data-fill-palette-color="secondary"></path></g></g><g transform="matrix(1,0,0,1,29.331764404296877,75.04681172105003)"><svg viewBox="0 0 316.416 88.06045980985307" height="88.06045980985307" width="316.416"><g><svg viewBox="0 0 316.416 88.06045980985307" height="88.06045980985307" width="316.416"><g><svg viewBox="0 0 316.416 88.06045980985307" height="88.06045980985307" width="316.416"><g><svg viewBox="0 0 316.416 88.06045980985307" height="88.06045980985307" width="316.416"><g><svg viewBox="0 0 316.416 88.06045980985307" height="88.06045980985307" width="316.416"><g><svg viewBox="0 0 316.416 88.06045980985307" height="88.06045980985307" width="316.416"><g transform="matrix(1,0,0,1,0,0)"><svg width="316.416" viewBox="1.5499999523162842 -31.700000762939453 115.68999481201172 32.20000076293945" height="88.06045980985307" data-palette-color="#d2d6dc"><path d="M1.55-10.25L1.55-10.25Q1.55-12.55 2.43-14.58 3.3-16.6 4.8-18.13 6.3-19.65 8.28-20.55 10.25-21.45 12.5-21.45L12.5-21.45Q14-21.45 15.25-21.08 16.5-20.7 17.4-20.15 18.3-19.6 18.85-19 19.4-18.4 19.6-17.95L19.6-17.95 19.8-20.9 23.9-20.9 23.9 0 19.6 0 19.6-2.65Q19.35-2.25 18.8-1.7 18.25-1.15 17.38-0.68 16.5-0.2 15.3 0.15 14.1 0.5 12.55 0.5L12.55 0.5Q10.15 0.5 8.13-0.38 6.1-1.25 4.65-2.73 3.2-4.2 2.38-6.15 1.55-8.1 1.55-10.25ZM5.85-10.5L5.85-10.5Q5.85-9.05 6.38-7.8 6.9-6.55 7.8-5.65 8.7-4.75 9.95-4.23 11.2-3.7 12.7-3.7L12.7-3.7Q14.2-3.7 15.48-4.23 16.75-4.75 17.68-5.68 18.6-6.6 19.1-7.83 19.6-9.05 19.6-10.5L19.6-10.5Q19.6-11.95 19.1-13.18 18.6-14.4 17.68-15.3 16.75-16.2 15.48-16.73 14.2-17.25 12.7-17.25L12.7-17.25Q11.2-17.25 9.95-16.73 8.7-16.2 7.8-15.3 6.9-14.4 6.38-13.18 5.85-11.95 5.85-10.5ZM49.35-20.9L49.35 0.45 45.75 0.45 45.25-5.35Q44.1-2.8 42.02-1.15 39.95 0.5 36.75 0.5L36.75 0.5Q33.55 0.5 31.67-1.23 29.8-2.95 29.7-5.75L29.7-5.75 29.7-20.9 33.95-20.9 33.95-7.65Q34.05-6.1 35.07-5 36.1-3.9 38.25-3.75L38.25-3.75Q39.75-3.75 41-4.28 42.25-4.8 43.15-5.7 44.05-6.6 44.55-7.85 45.05-9.1 45.05-10.6L45.05-10.6 45.05-20.9 49.35-20.9ZM57.15-20.85L57.15-30.1 61.4-30.1 61.4-20.85 67-20.85 67-17.05 61.4-17.05 61.4 0 57.15 0 57.15-17.05 53.4-17.05 53.4-20.85 57.15-20.85ZM68.64-10.5L68.64-10.5Q68.64-12.75 69.52-14.75 70.39-16.75 71.89-18.23 73.39-19.7 75.42-20.58 77.44-21.45 79.79-21.45L79.79-21.45Q82.14-21.45 84.17-20.58 86.19-19.7 87.67-18.23 89.14-16.75 89.97-14.75 90.79-12.75 90.79-10.5L90.79-10.5Q90.79-8.25 89.97-6.25 89.14-4.25 87.67-2.75 86.19-1.25 84.17-0.38 82.14 0.5 79.74 0.5L79.74 0.5Q77.44 0.5 75.42-0.3 73.39-1.1 71.89-2.55 70.39-4 69.52-6.03 68.64-8.05 68.64-10.5ZM72.89-10.45L72.89-10.45Q72.89-9.05 73.42-7.83 73.94-6.6 74.87-5.68 75.79-4.75 77.02-4.23 78.24-3.7 79.64-3.7L79.64-3.7Q81.04-3.7 82.29-4.23 83.54-4.75 84.47-5.68 85.39-6.6 85.94-7.83 86.49-9.05 86.49-10.45L86.49-10.45Q86.49-11.85 85.94-13.1 85.39-14.35 84.47-15.28 83.54-16.2 82.29-16.73 81.04-17.25 79.64-17.25L79.64-17.25Q78.24-17.25 77.02-16.73 75.79-16.2 74.87-15.28 73.94-14.35 73.42-13.1 72.89-11.85 72.89-10.45ZM94.79-28.9L94.79-28.9Q94.79-30.1 95.67-30.9 96.54-31.7 97.54-31.7L97.54-31.7Q98.54-31.7 99.39-30.9 100.24-30.1 100.24-28.9L100.24-28.9Q100.24-27.7 99.39-26.93 98.54-26.15 97.54-26.15L97.54-26.15Q96.54-26.15 95.67-26.93 94.79-27.7 94.79-28.9ZM99.59-20.9L99.59 0 95.34 0 95.34-20.9 99.59-20.9ZM107.39-20.85L107.39-30.1 111.64-30.1 111.64-20.85 117.24-20.85 117.24-17.05 111.64-17.05 111.64 0 107.39 0 107.39-17.05 103.64-17.05 103.64-20.85 107.39-20.85Z" opacity="1" transform="matrix(1,0,0,1,0,0)" fill="#D2D6DC" class="undefined-text-0" data-fill-palette-color="primary" id="text-0"></path></svg></g></svg></g></svg></g></svg></g></svg></g></svg></g></svg></g></svg></g></svg>