<svg xmlns:xlink="http://www.w3.org/1999/xlink" xmlns="http://www.w3.org/2000/svg" viewBox="0 0 395.52 100.6051790633609" height="100.6051790633609" width="395.52"><g><svg viewBox="0 0 395.52 100.6051790633609" height="100.6051790633609" width="395.52"><g><svg viewBox="0 0 395.52 100.6051790633609" height="100.6051790633609" width="395.52"><g><svg viewBox="0 0 395.52 100.6051790633609" height="100.6051790633609" width="395.52"><g><svg viewBox="0 0 395.52 100.6051790633609" height="100.6051790633609" width="395.52"><g transform="matrix(1,0,0,1,0,0)"><svg width="395.52" viewBox="1.5499999523162842 -31.3799991607666 125.15999603271484 31.839998245239258" height="100.6051790633609" data-palette-color="#454545"><path d="M13.79-13.28L13.79-13.28Q15-13.28 16.21-13.22L16.21-13.22 16.21-15.06Q16.21-19.54 11.21-19.54L11.21-19.54Q8.97-19.54 7.93-19.14L7.93-19.14Q6.09-18.45 5.29-17.96 4.48-17.47 4.02-17.47 3.56-17.47 3.16-17.82 2.76-18.16 2.76-18.74L2.76-18.74Q2.76-19.2 3.28-19.66L3.28-19.66Q5.98-22.24 11.26-22.24L11.26-22.24Q17.36-22.24 19.08-18.16L19.08-18.16Q19.66-16.72 19.66-14.83L19.66-14.83 19.54-1.55Q19.54-0.8 19.02-0.4 18.51 0 17.87 0 17.24 0 16.72-0.34 16.21-0.69 16.21-1.49L16.21-1.49 16.21-3.56Q14.83-0.57 11.26 0.17L11.26 0.17Q10.17 0.46 8.79 0.46 7.41 0.46 6.06 0.06 4.71-0.34 3.68-1.21L3.68-1.21Q1.55-2.99 1.55-6.03L1.55-6.03Q1.55-13.28 13.79-13.28ZM16.21-8.74L16.21-10.69Q15.29-10.57 14.08-10.57 12.87-10.57 11.61-10.55 10.34-10.52 9.2-10.26 8.05-10 7.13-9.48L7.13-9.48Q5.17-8.45 5.06-6.09L5.06-6.09Q5.06-4.25 6.55-3.22L6.55-3.22Q7.7-2.3 9.83-2.24L9.83-2.24Q12.41-2.24 14.31-3.91L14.31-3.91Q16.03-5.52 16.21-8.74L16.21-8.74ZM44.88-20.11L44.88-1.61Q44.88-0.8 44.28-0.4 43.68 0 43.24 0 42.81 0 42.47-0.09 42.12-0.17 41.89-0.46L41.89-0.46Q41.32-0.86 41.32-1.61L41.32-1.61 41.32-3.62Q39.94-0.57 36.26 0.17L36.26 0.17Q35.11 0.46 33.79 0.46 32.47 0.46 31.03 0 29.6-0.46 28.56-1.49L28.56-1.49Q26.26-3.68 26.26-8.05L26.26-8.05 26.26-20.11Q26.26-20.92 26.78-21.38 27.3-21.84 27.99-21.84L27.99-21.84Q28.68-21.84 29.19-21.38 29.71-20.92 29.71-20.11L29.71-20.11 29.71-7.76Q29.71-4.66 30.97-3.45L30.97-3.45Q32.24-2.24 34.77-2.24L34.77-2.24Q39.02-2.24 40.63-5.69L40.63-5.69Q41.26-6.9 41.32-8.45L41.32-8.45 41.32-20.11Q41.32-20.92 41.89-21.38 42.47-21.84 43.16-21.84L43.16-21.84Q43.85-21.84 44.37-21.38 44.88-20.92 44.88-20.11L44.88-20.11ZM63.1-1.26L63.1-1.26Q63.1 0.46 59.02 0.46L59.02 0.46Q55.97 0.46 54.71-1.21L54.71-1.21Q53.33-2.99 53.21-7.07L53.21-7.07 53.21-19.14 50.68-19.14Q50-19.14 49.59-19.57 49.19-20 49.19-20.46L49.19-20.46Q49.19-20.92 49.54-21.38 49.88-21.84 50.68-21.84L50.68-21.84 53.44-21.84 53.67-28.05Q53.79-28.74 54.31-29.11 54.82-29.48 55.4-29.48 55.97-29.48 56.37-29.14 56.78-28.79 56.78-28.05L56.78-28.05 56.78-21.84 60.74-21.84Q61.43-21.84 61.81-21.38 62.18-20.92 62.18-20.46L62.18-20.46Q62.18-19.89 61.81-19.51 61.43-19.14 60.74-19.14L60.74-19.14 56.78-19.14 56.78-8.97Q56.78-4.71 57.06-3.82 57.35-2.93 57.98-2.59 58.62-2.24 59.54-2.24L59.54-2.24 61.78-2.41Q62.41-2.41 62.75-2.01 63.1-1.61 63.1-1.26ZM65.45-10.86L65.45-10.86Q65.45-12.93 66.11-15 66.77-17.07 68.15-18.74L68.15-18.74Q71.03-22.24 76.31-22.24 81.6-22.24 84.48-18.74L84.48-18.74Q87.18-15.4 87.18-10.92L87.18-10.92Q87.18-6.38 84.48-3.1L84.48-3.1Q81.6 0.46 76.31 0.46 71.03 0.46 68.15-3.1L68.15-3.1Q65.45-6.32 65.45-10.86ZM69.19-10.86L69.19-10.86Q69.19-9.48 69.56-7.93 69.94-6.38 70.91-5.06L70.91-5.06Q72.87-2.24 76.31-2.24L76.31-2.24Q79.94-2.24 81.72-5.06L81.72-5.06Q83.38-7.7 83.38-10.92L83.38-10.92Q83.38-14.25 81.72-16.67L81.72-16.67Q79.88-19.54 76.31-19.54L76.31-19.54Q72.87-19.54 70.91-16.67L70.91-16.67Q69.19-14.31 69.19-10.86ZM93.55-1.9L93.55-29.48Q93.55-30.69 94.7-31.21L94.7-31.21Q95.05-31.26 95.68-31.32 96.31-31.38 96.86-30.92 97.4-30.46 97.4-29.48L97.4-29.48 97.4-1.9Q97.4-0.52 96.2-0.11L96.2-0.11Q95.85 0 95.28 0 94.7 0 94.13-0.46 93.55-0.92 93.55-1.9L93.55-1.9ZM112.69-28.1L104.13-28.1Q103.26-28.1 102.86-28.62 102.46-29.14 102.46-29.74 102.46-30.34 102.86-30.86 103.26-31.38 104.13-31.38L104.13-31.38 125.1-31.38Q125.91-31.38 126.31-30.86 126.71-30.34 126.71-29.74 126.71-29.14 126.28-28.62 125.85-28.1 125.1-28.1L125.1-28.1 116.6-28.1 116.6-1.9Q116.6-0.57 115.45-0.11L115.45-0.11Q115.1 0 114.53 0 113.95 0 113.32-0.46 112.69-0.92 112.69-1.9L112.69-1.9 112.69-28.1Z" opacity="1" transform="matrix(1,0,0,1,0,0)" fill="#454545" class="undefined-text-0" data-fill-palette-color="primary" id="text-0"></path></svg></g></svg></g></svg></g></svg></g></svg></g><defs></defs></svg>