<svg xmlns:xlink="http://www.w3.org/1999/xlink" xmlns="http://www.w3.org/2000/svg" viewBox="0 0 316.416 88.06045980985307" height="88.06045980985307" width="316.416"><g><svg viewBox="0 0 316.416 88.06045980985307" height="88.06045980985307" width="316.416"><g><svg viewBox="0 0 316.416 88.06045980985307" height="88.06045980985307" width="316.416"><g><svg viewBox="0 0 316.416 88.06045980985307" height="88.06045980985307" width="316.416"><g><svg viewBox="0 0 316.416 88.06045980985307" height="88.06045980985307" width="316.416"><g><svg viewBox="0 0 316.416 88.06045980985307" height="88.06045980985307" width="316.416"><g transform="matrix(1,0,0,1,0,0)"><svg width="316.416" viewBox="1.5499999523162842 -31.700000762939453 115.68999481201172 32.20000076293945" height="88.06045980985307" data-palette-color="#d2d6dc"><path d="M1.55-10.25L1.55-10.25Q1.55-12.55 2.43-14.58 3.3-16.6 4.8-18.13 6.3-19.65 8.28-20.55 10.25-21.45 12.5-21.45L12.5-21.45Q14-21.45 15.25-21.08 16.5-20.7 17.4-20.15 18.3-19.6 18.85-19 19.4-18.4 19.6-17.95L19.6-17.95 19.8-20.9 23.9-20.9 23.9 0 19.6 0 19.6-2.65Q19.35-2.25 18.8-1.7 18.25-1.15 17.38-0.68 16.5-0.2 15.3 0.15 14.1 0.5 12.55 0.5L12.55 0.5Q10.15 0.5 8.13-0.38 6.1-1.25 4.65-2.73 3.2-4.2 2.38-6.15 1.55-8.1 1.55-10.25ZM5.85-10.5L5.85-10.5Q5.85-9.05 6.38-7.8 6.9-6.55 7.8-5.65 8.7-4.75 9.95-4.23 11.2-3.7 12.7-3.7L12.7-3.7Q14.2-3.7 15.48-4.23 16.75-4.75 17.68-5.68 18.6-6.6 19.1-7.83 19.6-9.05 19.6-10.5L19.6-10.5Q19.6-11.95 19.1-13.18 18.6-14.4 17.68-15.3 16.75-16.2 15.48-16.73 14.2-17.25 12.7-17.25L12.7-17.25Q11.2-17.25 9.95-16.73 8.7-16.2 7.8-15.3 6.9-14.4 6.38-13.18 5.85-11.95 5.85-10.5ZM49.35-20.9L49.35 0.45 45.75 0.45 45.25-5.35Q44.1-2.8 42.02-1.15 39.95 0.5 36.75 0.5L36.75 0.5Q33.55 0.5 31.67-1.23 29.8-2.95 29.7-5.75L29.7-5.75 29.7-20.9 33.95-20.9 33.95-7.65Q34.05-6.1 35.07-5 36.1-3.9 38.25-3.75L38.25-3.75Q39.75-3.75 41-4.28 42.25-4.8 43.15-5.7 44.05-6.6 44.55-7.85 45.05-9.1 45.05-10.6L45.05-10.6 45.05-20.9 49.35-20.9ZM57.15-20.85L57.15-30.1 61.4-30.1 61.4-20.85 67-20.85 67-17.05 61.4-17.05 61.4 0 57.15 0 57.15-17.05 53.4-17.05 53.4-20.85 57.15-20.85ZM68.64-10.5L68.64-10.5Q68.64-12.75 69.52-14.75 70.39-16.75 71.89-18.23 73.39-19.7 75.42-20.58 77.44-21.45 79.79-21.45L79.79-21.45Q82.14-21.45 84.17-20.58 86.19-19.7 87.67-18.23 89.14-16.75 89.97-14.75 90.79-12.75 90.79-10.5L90.79-10.5Q90.79-8.25 89.97-6.25 89.14-4.25 87.67-2.75 86.19-1.25 84.17-0.38 82.14 0.5 79.74 0.5L79.74 0.5Q77.44 0.5 75.42-0.3 73.39-1.1 71.89-2.55 70.39-4 69.52-6.03 68.64-8.05 68.64-10.5ZM72.89-10.45L72.89-10.45Q72.89-9.05 73.42-7.83 73.94-6.6 74.87-5.68 75.79-4.75 77.02-4.23 78.24-3.7 79.64-3.7L79.64-3.7Q81.04-3.7 82.29-4.23 83.54-4.75 84.47-5.68 85.39-6.6 85.94-7.83 86.49-9.05 86.49-10.45L86.49-10.45Q86.49-11.85 85.94-13.1 85.39-14.35 84.47-15.28 83.54-16.2 82.29-16.73 81.04-17.25 79.64-17.25L79.64-17.25Q78.24-17.25 77.02-16.73 75.79-16.2 74.87-15.28 73.94-14.35 73.42-13.1 72.89-11.85 72.89-10.45ZM94.79-28.9L94.79-28.9Q94.79-30.1 95.67-30.9 96.54-31.7 97.54-31.7L97.54-31.7Q98.54-31.7 99.39-30.9 100.24-30.1 100.24-28.9L100.24-28.9Q100.24-27.7 99.39-26.93 98.54-26.15 97.54-26.15L97.54-26.15Q96.54-26.15 95.67-26.93 94.79-27.7 94.79-28.9ZM99.59-20.9L99.59 0 95.34 0 95.34-20.9 99.59-20.9ZM107.39-20.85L107.39-30.1 111.64-30.1 111.64-20.85 117.24-20.85 117.24-17.05 111.64-17.05 111.64 0 107.39 0 107.39-17.05 103.64-17.05 103.64-20.85 107.39-20.85Z" opacity="1" transform="matrix(1,0,0,1,0,0)" fill="#D2D6DC" class="undefined-text-0" data-fill-palette-color="primary" id="text-0"></path></svg></g></svg></g></svg></g></svg></g></svg></g></svg></g></svg>